<?xml version="1.0" standalone="no"?>
<!DOCTYPE svg PUBLIC "-//W3C//DTD SVG 20010904//EN"
 "http://www.w3.org/TR/2001/REC-SVG-20010904/DTD/svg10.dtd">
<svg version="1.0" xmlns="http://www.w3.org/2000/svg"
 width="512.000000pt" height="512.000000pt" viewBox="0 0 512.000000 512.000000"
 preserveAspectRatio="xMidYMid meet">
<metadata>
Created by potrace 1.14, written by Peter Selinger 2001-2017
</metadata>
<g transform="translate(0.000000,512.000000) scale(0.100000,-0.100000)"
fill="#000000" stroke="none">
<path d="M2523 5110 c-36 -14 -46 -48 -48 -159 -2 -59 -3 -110 -4 -116 -1 -6
-135 -10 -379 -10 -291 -1 -386 -4 -417 -15 -107 -36 -194 -120 -236 -227 -22
-58 -22 -59 -24 -763 -1 -404 3 -717 8 -733 15 -46 38 -51 222 -53 94 -1 177
-3 186 -3 14 -1 16 -14 15 -83 l-1 -83 -193 -5 c-246 -6 -233 3 -236 -175 l-1
-80 -72 -3 -72 -3 1 99 c0 106 -9 133 -49 151 -14 7 -96 11 -198 11 -169 0
-175 -1 -202 -24 l-28 -24 -3 -875 -2 -876 24 -28 24 -28 177 -3 c186 -3 220
2 243 39 10 15 13 142 14 535 l1 515 71 -3 71 -3 0 -350 c1 -253 4 -356 13
-372 18 -33 42 -39 159 -42 l63 -1 0 -375 c0 -206 -4 -375 -8 -376 -4 -1 -36
-2 -72 -4 -55 -2 -67 -6 -87 -29 -16 -19 -23 -40 -24 -69 -5 -404 0 -446 54
-461 12 -3 189 -6 392 -6 409 0 406 0 423 65 4 17 7 124 6 238 l-1 209 -26 26
c-23 22 -34 25 -94 26 l-69 1 0 377 0 378 36 1 c33 0 570 0 726 -1 l70 0 0
-377 -1 -378 -68 -1 c-59 -1 -72 -4 -94 -27 l-26 -25 -1 -211 c0 -116 2 -224
7 -241 15 -58 28 -60 431 -60 376 0 400 2 424 41 17 26 19 447 3 477 -17 31
-46 44 -110 47 -31 2 -59 4 -64 4 -4 1 -7 170 -7 376 l1 375 82 1 c45 1 85 1
88 1 16 -2 59 49 60 70 1 13 3 169 4 348 1 179 3 330 4 337 1 7 25 11 70 12
l69 0 0 -510 c0 -383 3 -517 12 -534 21 -39 51 -45 236 -45 l176 0 29 29 29
29 0 872 0 872 -29 29 -29 29 -176 0 c-183 0 -215 -6 -235 -44 -7 -12 -13 -64
-14 -116 l-2 -95 -71 -3 -70 -3 1 85 c2 100 -11 146 -45 163 -17 9 -81 13
-207 13 l-181 0 1 85 c1 49 6 85 12 86 5 0 89 1 185 2 190 3 215 8 227 55 4
15 7 340 7 722 0 761 1 750 -59 846 -31 48 -93 105 -143 131 -63 33 -110 37
-477 39 -203 1 -372 3 -375 3 -3 1 -5 47 -5 104 1 56 -3 114 -8 130 -14 43
-68 65 -114 47z m870 -461 c48 -13 105 -63 127 -112 15 -34 17 -99 17 -687 l0
-649 -977 0 -977 0 0 649 c0 718 -3 690 65 753 61 57 38 56 907 57 529 0 813
-4 838 -11z m-302 -1618 c14 -1 17 -13 15 -83 l-2 -83 -544 0 -545 0 -1 82 c0
65 3 83 15 85 12 3 1014 1 1062 -1z m-1986 -1098 l0 -758 -73 -3 -72 -3 0 761
0 760 73 0 72 0 0 -757z m2431 160 l-1 -598 -976 -3 -976 -2 0 600 0 600 977
0 978 0 -2 -597z m624 -163 l0 -760 -70 0 c-49 0 -70 4 -71 13 -3 33 -5 1493
-2 1500 3 4 35 7 74 7 l69 0 0 -760z m-2749 490 c4 -41 5 -146 2 -156 -2 -6
-30 -10 -71 -9 l-67 1 -2 87 -2 86 42 3 c83 6 97 4 98 -12z m2431 11 c13 -2 6
-171 -6 -172 -36 -4 -126 -3 -127 1 -1 3 -2 42 -3 87 l-2 82 46 3 c39 3 61 2
92 -1z m-1866 -1481 c0 -201 -1 -370 -3 -375 -4 -13 -137 -14 -150 -2 -4 5 -8
174 -8 375 l0 367 45 5 c25 3 61 3 80 0 l35 -5 1 -365z m1328 -3 c-1 -204 -2
-374 -3 -377 0 -3 -36 -5 -78 -5 l-78 0 0 375 0 375 70 5 c39 3 75 4 80 2 7
-1 10 -133 9 -375z m-1139 -664 l1 -113 -161 -1 c-172 0 -315 0 -355 0 l-26 1
2 108 c1 59 2 110 3 113 1 3 121 5 269 5 l267 -1 0 -112z m1326 108 c5 -26 3
-214 -2 -217 -6 -3 -239 -6 -439 -5 l-95 1 1 113 c1 61 2 112 3 113 9 4 531
-1 532 -5z"/>
<path d="M1923 4251 c-260 -94 -341 -418 -152 -612 83 -86 166 -119 286 -116
367 10 494 496 182 693 -86 54 -221 69 -316 35z m217 -175 c26 -13 57 -40 75
-65 27 -38 30 -51 30 -114 0 -63 -4 -77 -30 -116 -52 -77 -163 -114 -247 -82
-39 15 -94 67 -113 108 -48 100 -3 228 95 272 77 35 117 34 190 -3z"/>
<path d="M2975 4257 c-92 -31 -151 -73 -202 -144 -82 -115 -91 -270 -24 -400
30 -59 100 -123 171 -157 59 -28 74 -31 160 -30 82 0 103 4 152 27 112 53 200
167 214 278 4 30 8 61 9 69 3 26 -24 129 -46 172 -31 60 -111 136 -177 166
-68 31 -192 40 -257 19z m159 -162 c46 -9 118 -73 137 -122 17 -41 17 -112 1
-154 -28 -72 -112 -130 -190 -130 -186 -1 -282 219 -152 351 39 40 122 74 157
64 6 -1 28 -6 47 -9z"/>
<path d="M1820 2523 c-25 -9 -50 -46 -50 -74 0 -34 33 -75 64 -81 38 -8 84 17
93 49 20 76 -36 132 -107 106z"/>
<path d="M3213 2508 c-30 -34 -34 -55 -19 -93 33 -78 149 -55 154 30 5 71 -88
114 -135 63z"/>
<path d="M2445 2398 c-149 -28 -310 -155 -378 -298 -60 -126 -72 -261 -27
-300 13 -11 35 -20 49 -21 14 0 236 -1 492 -1 317 0 472 3 486 10 77 42 39
260 -72 407 -51 67 -116 119 -200 160 -112 53 -224 67 -350 43z m275 -194 c36
-17 85 -51 109 -75 44 -44 110 -164 96 -177 -8 -8 -712 -10 -726 -1 -12 7 7
62 38 112 33 53 90 104 148 134 72 37 90 41 185 39 72 -1 95 -6 150 -32z"/>
</g>
</svg>
